<svg width="32" height="32" viewBox="0 0 32 32" fill="none" xmlns="http://www.w3.org/2000/svg">
<path d="M17.3338 15.9998C17.3338 16.7362 16.7369 17.3332 16.0005 17.3332C15.2641 17.3332 14.6672 16.7362 14.6672 15.9998C14.6672 15.2635 15.2641 14.6665 16.0005 14.6665C16.7369 14.6665 17.3338 15.2635 17.3338 15.9998ZM26.9337 26.9337C29.6537 24.227 26.9603 17.1203 20.9337 11.067C14.8803 5.04034 7.77367 2.347 5.067 5.067C2.347 7.77367 5.04034 14.8803 11.067 20.9337C17.1203 26.9603 24.227 29.6537 26.9337 26.9337ZM20.9337 20.9337C26.9603 14.8803 29.6537 7.77367 26.9337 5.067C24.227 2.347 17.1203 5.04034 11.067 11.067C5.04034 17.1203 2.347 24.227 5.067 26.9337C7.77367 29.6537 14.8803 26.9603 20.9337 20.9337Z" stroke="#2C2420" stroke-width="0.5" stroke-linecap="round"/>
</svg>
