<svg width="32" height="32" viewBox="0 0 32 32" fill="none" xmlns="http://www.w3.org/2000/svg">
<path d="M22.6657 17.3334C22.6657 15.6023 22.1043 13.9179 21.0659 12.533L20.2661 11.4662C19.2276 10.0814 18.6663 8.39695 18.6663 6.66585V3.99897C18.6663 3.64532 18.5259 3.30615 18.2759 3.05608C18.0258 2.80601 17.6868 2.66553 17.3332 2.66553H14.667C14.3134 2.66553 13.9743 2.80601 13.7243 3.05608C13.4743 3.30615 13.3338 3.64532 13.3338 3.99897V6.66585C13.3338 8.39695 12.7725 10.0814 11.7341 11.4662L10.9342 12.533C9.89581 13.9179 9.33447 15.6023 9.33447 17.3334V28.0009C9.33447 28.3545 9.47493 28.6937 9.72493 28.9438C9.97494 29.1938 10.314 29.3343 10.6676 29.3343H21.3326C21.6861 29.3343 22.0252 29.1938 22.2752 28.9438C22.5252 28.6937 22.6657 28.3545 22.6657 28.0009V17.3334ZM22.6657 17.3334H17.3332C16.9796 17.3334 16.6405 17.4739 16.3905 17.7239C16.1405 17.974 16.0001 18.3132 16.0001 18.6668V22.6671C16.0001 23.0208 16.1405 23.3599 16.3905 23.61C16.6405 23.8601 16.9796 24.0006 17.3332 24.0006H22.6657" stroke="#2C2420" stroke-width="0.5" stroke-linecap="round"/>
</svg>
