<svg width="32" height="32" viewBox="0 0 32 32" fill="none" xmlns="http://www.w3.org/2000/svg">
<path d="M14.6665 26.6679H2.66553M25.334 26.6682L16.3226 28.9202C16.1261 28.9693 15.921 28.9729 15.7229 28.9308C15.5247 28.8887 15.3388 28.802 15.1792 28.6774C15.0195 28.5527 14.8904 28.3933 14.8016 28.2113C14.7127 28.0293 14.6665 27.8294 14.6665 27.6269V6.0838C14.6668 5.6787 14.7593 5.27765 14.9371 4.91366C15.115 4.54967 15.3734 4.23098 15.6928 3.98177C16.0122 3.73257 16.3842 3.5594 16.7805 3.47542C17.1768 3.39143 17.5871 3.39884 17.9801 3.49708L23.3138 4.83044C23.8908 4.97464 24.403 5.30755 24.769 5.77623C25.1351 6.24492 25.3339 6.82249 25.334 7.41716V26.6682ZM25.334 26.6682L29.3343 26.6679M14.6665 5.33419H10.6662C9.95887 5.33419 9.28054 5.61514 8.7804 6.11525C8.28026 6.61536 7.99929 7.29365 7.99929 8.0009V26.6679M18.6668 16.0011H18.6801" stroke="#2C2420" stroke-width="0.5" stroke-linecap="round"/>
</svg>
