<svg width="32" height="32" viewBox="0 0 32 32" fill="none" xmlns="http://www.w3.org/2000/svg">
<ellipse cx="23.4303" cy="6.84989" rx="2.63636" ry="2.69999" stroke="#2C2420" stroke-width="0.66"/>
<rect x="17.4985" y="9.5498" width="11.8636" height="18.2249" stroke="#2C2420" stroke-width="0.66"/>
<rect x="5.96477" y="4.4799" width="3.29455" height="3.38999" stroke="black" stroke-width="0.66"/>
<rect x="3.65723" y="8.19995" width="7.90909" height="19.5749" rx="1.32" stroke="#2C2420" stroke-width="0.66"/>
<rect x="6.95312" y="10.8999" width="18.4545" height="18.8999" rx="0.66" fill="#FAF6ED" stroke="#2C2420" stroke-width="0.66"/>
<rect x="6.95312" y="28.45" width="18.4545" height="1.35" rx="0.66" stroke="#2C2420" stroke-width="0.66"/>
<path d="M7.61199 10.8999C8.39097 10.8999 9.16232 11.1443 9.882 11.6192C10.6017 12.0941 11.2556 12.7902 11.8064 13.6677C12.3572 14.5452 12.7942 15.587 13.0923 16.7335C13.3904 17.8801 13.5438 19.1089 13.5438 20.3499C13.5438 21.5909 13.3904 22.8197 13.0923 23.9662C12.7942 25.1127 12.3572 26.1545 11.8064 27.032C11.2556 27.9095 10.6017 28.6056 9.882 29.0805C9.16232 29.5554 8.39097 29.7998 7.61199 29.7998L7.61199 20.3499L7.61199 10.8999Z" fill="#FAF6ED" stroke="#2C2420" stroke-width="0.66"/>
<path d="M24.7487 29.7998C23.1755 29.7998 21.6667 28.8042 20.5543 27.032C19.4419 25.2598 18.8169 22.8562 18.8169 20.3499C18.8169 17.8436 19.4419 15.4399 20.5543 13.6677C21.6667 11.8955 23.1755 10.8999 24.7487 10.8999L24.7487 20.3499L24.7487 29.7998Z" fill="#FAF6ED" stroke="#2C2420" stroke-width="0.66"/>
<ellipse cx="16.1801" cy="6.85004" rx="3.95455" ry="4.04999" fill="#FAF6ED" stroke="#2C2420" stroke-width="0.66"/>
</svg>
