<svg width="32" height="32" viewBox="0 0 32 32" fill="none" xmlns="http://www.w3.org/2000/svg">
<path d="M3.95647 8.5118C3.11569 9.73437 2.66555 11.1832 2.66553 12.667C2.66553 15.7337 4.66568 18.0003 6.66583 20.0004L14.0104 27.1098C14.2625 27.3919 14.5717 27.6173 14.9175 27.7707C15.2634 27.9242 15.6379 28.0024 16.0163 28C16.3946 27.9976 16.7682 27.9147 17.112 27.7568C17.4559 27.599 17.7622 27.3698 18.0107 27.0844L25.3339 20.0004C27.3341 18.0003 29.3342 15.7203 29.3342 12.667C29.3413 11.18 28.8953 9.72606 28.0556 8.49878C27.2159 7.2715 26.0223 6.32905 24.6337 5.79687C23.2451 5.26468 21.7273 5.168 20.2824 5.51969C18.8375 5.87138 17.5339 6.65476 16.5453 7.76557C16.4754 7.84026 16.391 7.8998 16.2971 7.94051C16.2033 7.98122 16.1022 8.00222 15.9999 8.00222C15.8976 8.00222 15.7964 7.98122 15.7026 7.94051C15.6088 7.8998 15.5244 7.84026 15.4545 7.76557C14.4627 6.66194 13.1595 5.88508 11.7169 5.53761C10.2743 5.19014 8.76026 5.2884 7.3747 5.81942C5.98914 6.35044 4.79726 7.28923 3.95647 8.5118Z" stroke="#2C2420" stroke-width="0.5" stroke-linecap="round"/>
</svg>
