<svg width="32" height="32" viewBox="0 0 32 32" fill="none" xmlns="http://www.w3.org/2000/svg">
<path d="M15.988 14.9589C17.3373 13.3349 18.668 11.9989 18.668 10.6655C18.668 9.95828 18.387 9.28001 17.8869 8.77991C17.3868 8.27981 16.7085 7.99886 16.0013 7.99886C15.2941 7.99886 14.6158 8.27981 14.1157 8.77991C13.6156 9.28001 13.3346 9.95828 13.3346 10.6655C13.3346 11.9989 14.668 13.3282 16.0013 14.9589L12.4674 19.3718M12.4674 19.3718L7.8186 25.3735C7.70915 25.5147 7.62919 25.6765 7.58347 25.8492C7.53775 26.0219 7.5272 26.202 7.55244 26.3788C7.57769 26.5557 7.63822 26.7257 7.73044 26.8787C7.82266 27.0317 7.94468 27.1646 8.08927 27.2695L10.5759 29.0735C10.86 29.2797 11.214 29.3655 11.561 29.3123C11.9079 29.2591 12.2199 29.0713 12.4293 28.7895L16.0013 23.9989M12.4674 19.3718C10.3048 16.3265 8.00127 13.6269 8.00127 9.33219C8.00127 7.56408 8.84412 5.86839 10.3444 4.61815C11.8447 3.36791 13.8795 2.66553 16.0013 2.66553C18.123 2.66553 20.1578 3.36791 21.6581 4.61815C23.1584 5.86839 24.0013 7.56408 24.0013 9.33219C23.9946 13.6255 21.6306 16.3122 19.428 19.3322M16.0013 23.9989L19.428 19.3322M16.0013 23.9989L19.5293 28.8015C19.7381 29.0814 20.0483 29.2683 20.3934 29.3219C20.7384 29.3755 21.0907 29.2916 21.3746 29.0882L23.8999 27.2749C24.0461 27.1699 24.1695 27.0364 24.2627 26.8825C24.3559 26.7286 24.4169 26.5574 24.4422 26.3793C24.4675 26.2012 24.4565 26.0197 24.4098 25.846C24.3631 25.6722 24.2818 25.5097 24.1706 25.3682L19.428 19.3322M8.32552 12.0207C9.18355 10.7805 10.3293 9.76666 11.6648 9.06601C13.0003 8.36535 14.4856 7.99874 15.9937 7.99756C17.5018 7.99638 18.9877 8.36067 20.3243 9.05923C21.6608 9.7578 22.8082 10.7698 23.6682 12.0087" stroke="#2C2420" stroke-width="0.5" stroke-linecap="round"/>
</svg>
