<svg width="32" height="32" viewBox="0 0 32 32" fill="none" xmlns="http://www.w3.org/2000/svg">
<rect x="6.75293" y="8.33325" width="1.31818" height="18.6666" rx="0.659091" stroke="#2C2420" stroke-width="0.66"/>
<rect x="6.75293" y="8.33325" width="18.4545" height="18.6666" rx="0.66" stroke="#2C2420" stroke-width="0.66"/>
<rect x="23.8896" y="8.33325" width="1.31818" height="18.6666" rx="0.659091" stroke="#2C2420" stroke-width="0.66"/>
<path d="M7.4118 8.33325C8.19078 8.33325 8.96213 8.57467 9.68181 9.04371C10.4015 9.51275 11.0554 10.2002 11.6062 11.0669C12.157 11.9336 12.594 12.9625 12.8921 14.0949C13.1902 15.2272 13.3436 16.4409 13.3436 17.6666C13.3436 18.8922 13.1902 20.1059 12.8921 21.2383C12.594 22.3707 12.157 23.3995 11.6062 24.2662C11.0554 25.1329 10.4015 25.8204 9.68181 26.2894C8.96213 26.7585 8.19078 26.9999 7.4118 26.9999L7.4118 17.6666L7.4118 8.33325Z" stroke="#2C2420" stroke-width="0.66"/>
<path d="M24.5485 26.9999C22.9753 26.9999 21.4665 26.0166 20.3541 24.2662C19.2417 22.5159 18.6167 20.1419 18.6167 17.6666C18.6167 15.1912 19.2417 12.8173 20.3541 11.0669C21.4665 9.31658 22.9753 8.33325 24.5485 8.33325L24.5485 17.6666L24.5485 26.9999Z" stroke="#2C2420" stroke-width="0.66"/>
<ellipse cx="15.9801" cy="5.66666" rx="2.63636" ry="2.66666" stroke="#2C2420" stroke-width="0.66"/>
<rect x="1" y="1" width="4.5" height="0.75" fill="#2C2420"/>
<rect x="1" y="1" width="0.75" height="4.5" fill="#2C2420"/>
<rect x="26.5" y="1" width="4.5" height="0.75" fill="#2C2420"/>
<rect x="30.25" y="1" width="0.75" height="4.5" fill="#2C2420"/>
<rect x="1" y="30.25" width="4.5" height="0.75" fill="#2C2420"/>
<rect x="1" y="26" width="0.75" height="4.5" fill="#2C2420"/>
<rect x="26.5" y="30.25" width="4.5" height="0.75" fill="#2C2420"/>
<rect x="30.25" y="26" width="0.75" height="4.5" fill="#2C2420"/>
</svg>
