<svg width="32" height="32" viewBox="0 0 32 32" fill="none" xmlns="http://www.w3.org/2000/svg">
<path d="M18.6665 22.6661H6.66767M18.6665 22.6661C18.6665 24.875 20.4572 26.6657 22.6661 26.6657C24.875 26.6657 26.6657 24.875 26.6657 22.6661C26.6657 20.4572 24.875 18.6665 22.6661 18.6665C20.4572 18.6665 18.6665 20.4572 18.6665 22.6661ZM25.3325 9.33407H13.3337M13.3337 9.33407C13.3337 11.543 11.543 13.3337 9.33407 13.3337C7.12515 13.3337 5.33447 11.543 5.33447 9.33407C5.33447 7.12515 7.12515 5.33447 9.33407 5.33447C11.543 5.33447 13.3337 7.12515 13.3337 9.33407Z" stroke="#2C2420" stroke-width="0.5" stroke-linecap="round"/>
</svg>
