<svg width="32" height="32" viewBox="0 0 32 32" fill="none" xmlns="http://www.w3.org/2000/svg">
<path d="M16.0001 15.9999V11.9996C16.0001 11.646 15.8596 11.3068 15.6096 11.0567C15.3596 10.8067 15.0205 10.6662 14.6669 10.6662H12.0005C11.6469 10.6662 11.3078 10.8067 11.0578 11.0567C10.8077 11.3068 10.6673 11.646 10.6673 11.9996V15.9999M21.3329 26.6674V22.6671C21.3329 22.3135 21.1924 21.9743 20.9424 21.7242C20.6924 21.4742 20.3533 21.3337 19.9997 21.3337H17.3333C16.9797 21.3337 16.6406 21.4742 16.3906 21.7242C16.1405 21.9743 16.0001 22.3135 16.0001 22.6671V26.6674M26.6657 29.3343V2.66553M5.33447 15.9999H26.6657M5.33447 26.6674H26.6657M5.33447 2.66553V29.3343M5.33447 5.33241H26.6657" stroke="#2C2420" stroke-width="0.5" stroke-linecap="round"/>
</svg>
