<svg width="32" height="32" viewBox="0 0 32 32" fill="none" xmlns="http://www.w3.org/2000/svg">
<path d="M15.6285 2.77182C15.5166 2.8413 15.4264 2.94067 15.3679 3.05872L12.2893 9.29739C12.0862 9.70841 11.7863 10.0639 11.4154 10.3334C11.0444 10.6028 10.6136 10.7781 10.1599 10.8441L3.27326 11.8507C3.1422 11.8692 3.01898 11.9242 2.91763 12.0094C2.81628 12.0945 2.74089 12.2064 2.70003 12.3323C2.65918 12.4582 2.6545 12.5931 2.68654 12.7215C2.71858 12.8499 2.78605 12.9668 2.88126 13.0587L7.86259 17.9081C8.1914 18.2283 8.43738 18.6236 8.57931 19.0601C8.72124 19.4966 8.75486 19.961 8.67726 20.4134L7.50259 27.2654C7.47974 27.3957 7.4939 27.5297 7.54347 27.6523C7.59304 27.775 7.67602 27.8812 7.78299 27.959C7.88995 28.0368 8.0166 28.083 8.14853 28.0924C8.28046 28.1018 8.41237 28.0739 8.52926 28.0121L14.6853 24.7747C15.091 24.5617 15.5424 24.4504 16.0006 24.4504C16.4588 24.4504 16.9102 24.5617 17.3159 24.7747L23.4733 28.0121C23.5902 28.0743 23.7223 28.1024 23.8544 28.0932C23.9866 28.084 24.1135 28.0379 24.2207 27.96C24.3278 27.8822 24.411 27.7758 24.4606 27.653C24.5102 27.5301 24.5243 27.3958 24.5013 27.2654L23.3253 20.4121C23.248 19.9599 23.2818 19.4958 23.4237 19.0596C23.5656 18.6234 23.8114 18.2282 24.1399 17.9081L29.1213 13.0574C29.2157 12.9653 29.2825 12.8487 29.314 12.7206C29.3456 12.5926 29.3407 12.4583 29.3 12.3329C29.2592 12.2074 29.1841 12.096 29.0832 12.011C28.9824 11.926 28.8598 11.871 28.7293 11.8521L21.8413 10.8441C21.3881 10.7775 20.9578 10.602 20.5874 10.3327C20.217 10.0633 19.9175 9.70801 19.7146 9.29739L16.6346 3.05872C16.5762 2.94067 16.4859 2.8413 16.374 2.77182C16.2621 2.70234 16.133 2.66553 16.0013 2.66553C15.8695 2.66553 15.7404 2.70234 15.6285 2.77182Z" stroke="#2C2420" stroke-width="0.5" stroke-linecap="round"/>
</svg>
