<svg width="32" height="32" viewBox="0 0 32 32" fill="none" xmlns="http://www.w3.org/2000/svg">
<path d="M10.9999 14.0001V26.0006M19.0004 9.87985L18.0003 14.0001H23.8307C24.1412 14.0001 24.4474 14.0724 24.7251 14.2113C25.0029 14.3502 25.2444 14.5518 25.4307 14.8002C25.6171 15.0486 25.743 15.337 25.7985 15.6425C25.8541 15.948 25.8377 16.2623 25.7508 16.5605L23.4206 24.561C23.2995 24.9764 23.0468 25.3414 22.7006 25.6011C22.3544 25.8607 21.9333 26.0011 21.5005 26.0011H7.99974C7.46926 26.0011 6.96051 25.7903 6.58541 25.4153C6.21031 25.0402 5.99963 24.5314 5.99963 24.0009V16.0003C5.99963 15.4698 6.21031 14.9611 6.58541 14.586C6.96051 14.2109 7.46926 14.0001 7.99974 14.0001H10.7599C11.132 14 11.4966 13.896 11.8128 13.6999C12.1291 13.5038 12.3844 13.2233 12.5499 12.8901L16.0002 5.99951C16.4718 6.00536 16.936 6.11772 17.358 6.32813C17.7801 6.53854 18.1492 6.84168 18.4377 7.21483C18.7262 7.58798 18.9267 8.02151 19.0241 8.48293C19.1215 8.94436 19.1133 9.42191 19.0004 9.87985Z" stroke="currentColor" stroke-width="0.5" stroke-linecap="round"/>
</svg>
